<?xml version="1.0" standalone="no"?>
<!DOCTYPE svg PUBLIC "-//W3C//DTD SVG 20010904//EN"
 "http://www.w3.org/TR/2001/REC-SVG-20010904/DTD/svg10.dtd">
<svg version="1.0" xmlns="http://www.w3.org/2000/svg"
 width="512.000000pt" height="512.000000pt" viewBox="0 0 512.000000 512.000000"
 preserveAspectRatio="xMidYMid meet">

<g transform="translate(0.000000,512.000000) scale(0.100000,-0.100000)"
fill="#000000" stroke="none">
<path d="M933 4609 c-61 -18 -209 -220 -263 -360 -43 -111 -53 -162 -53 -271
0 -54 -1 -98 -2 -98 -2 0 -31 13 -66 30 -139 64 -374 111 -451 90 -40 -12 -84
-57 -94 -97 -9 -34 11 -189 36 -288 30 -117 100 -251 170 -327 111 -122 296
-228 477 -274 52 -13 106 -24 118 -24 l23 0 4 -292 c4 -262 7 -302 26 -373 41
-150 136 -317 231 -410 23 -21 41 -42 41 -46 0 -3 -19 -14 -42 -24 -114 -50
-242 -154 -310 -253 -111 -161 -156 -402 -113 -606 21 -100 43 -137 97 -164
105 -53 329 -65 473 -26 199 53 366 186 459 364 57 110 78 190 83 331 l6 126
74 7 c40 4 80 9 87 12 7 3 27 -18 49 -53 42 -70 131 -157 213 -209 103 -66
313 -144 387 -144 70 0 147 79 147 150 0 19 -11 52 -24 75 -27 45 -58 62 -161
91 -33 9 -94 33 -135 53 -76 36 -170 115 -170 142 0 8 19 25 41 38 62 35 204
175 255 252 103 156 149 300 164 516 14 219 65 340 194 468 251 248 645 245
897 -5 88 -88 150 -200 174 -315 20 -93 22 -554 3 -559 -7 -1 -61 -15 -120
-29 -189 -46 -373 -149 -488 -275 -70 -76 -140 -210 -170 -327 -26 -102 -45
-252 -37 -287 11 -41 55 -86 95 -98 77 -21 312 26 451 90 35 17 64 30 66 30 1
0 2 -44 2 -97 1 -157 43 -289 142 -439 115 -175 170 -217 253 -194 86 24 240
250 300 440 18 60 23 98 23 186 l0 111 70 -33 c143 -67 378 -115 457 -94 44
13 85 58 94 105 16 87 -36 317 -102 452 -76 154 -207 274 -398 364 -85 39
-250 89 -298 89 l-26 0 -5 293 c-4 263 -6 300 -26 372 -43 151 -121 295 -217
395 l-54 57 42 18 c271 118 438 380 438 684 0 114 -19 223 -48 280 -37 73
-196 118 -377 107 -123 -7 -197 -26 -300 -76 -247 -122 -390 -348 -402 -636
l-6 -121 -74 -7 c-40 -4 -80 -9 -87 -12 -7 -3 -27 18 -49 53 -42 70 -131 157
-213 209 -103 66 -313 144 -387 144 -47 0 -105 -36 -127 -80 -26 -51 -25 -93
2 -141 24 -44 63 -65 188 -104 47 -14 115 -44 151 -65 66 -39 129 -99 129
-123 0 -7 -18 -22 -40 -35 -56 -32 -173 -144 -232 -222 -64 -84 -132 -224
-158 -325 -11 -44 -25 -141 -30 -215 -11 -165 -20 -202 -72 -309 -100 -209
-331 -351 -568 -351 -237 0 -465 141 -569 350 -62 127 -71 184 -71 473 l0 247
24 0 c48 0 218 50 300 88 257 121 399 285 466 538 25 97 45 252 36 287 -10 40
-54 85 -94 97 -79 21 -314 -27 -457 -94 l-70 -33 0 111 c0 88 -5 126 -23 186
-39 124 -123 272 -213 377 -49 58 -106 79 -166 62z"/>
</g>
</svg>
